<svg width="35" height="46" viewBox="0 0 35 46" fill="none" xmlns="http://www.w3.org/2000/svg">
<path fill-rule="evenodd" clip-rule="evenodd" d="M20.2919 1.92888C15.5527 4.33693 4.87011 16.2235 1.38611 22.8841C-0.714563 26.9061 -0.458313 27.1366 6.33031 27.5209L11.1721 27.8027C2.38521 43.1732 3.28181 41.5337 3.20491 41.6874C1.28361 44.9921 3.89661 47.1952 6.66331 44.6078C6.68891 44.5822 30.4364 26.1375 34.689 20.0149C35.1757 19.3232 35.0477 18.5291 33.9717 17.7349C32.2041 16.4284 29.8217 16.0185 21.1373 15.3013C19.7795 15.1988 19.1648 15.0451 19.2672 14.8402C19.9077 13.2775 22.3669 6.71931 23.5453 4.1576C24.9287 1.16034 24.8006 -0.376706 20.2919 1.92888ZM18.5242 7.66721C18.2937 8.20521 15.4501 15.0195 15.322 15.3013C14.656 16.6334 15.0915 17.3251 16.7566 17.5044C22.29 18.0936 24.4931 18.2985 26.7219 18.401C30.4108 18.5803 30.4365 18.4266 26.5426 22.3461C22.3926 26.5474 11.7869 36.2821 11.5563 36.0515C11.3514 35.8466 14.7585 29.3397 15.6808 28.1357C17.3459 25.9582 16.8335 25.6508 11.5307 25.6508C9.14821 25.6508 7.66241 25.5995 6.53521 25.5227C5.48491 25.4458 4.84441 24.3187 5.35681 23.3708C7.27811 19.8612 10.7109 15.4806 16.4237 9.20431C19.0367 6.38631 19.0878 6.33511 18.5242 7.66721Z" fill="#000001"/>
</svg>
