<svg width="482" height="479" viewBox="0 0 482 479" fill="none" xmlns="http://www.w3.org/2000/svg">
<path d="M371.645 163.284H137.96V154.053C137.961 151.351 139.035 148.759 140.946 146.848C142.858 144.937 145.45 143.863 148.153 143.863H368.531C368.155 145.694 367.967 147.557 367.965 149.426C367.965 149.505 367.965 149.575 367.965 149.651H174.502V157.416H368.952L369.14 157.363C369.755 159.423 370.595 161.408 371.645 163.284Z" fill="#CCEFF6"/>
<path d="M265.095 314.621C266.587 314.621 268.048 315.063 269.29 315.893C270.531 316.722 271.501 317.901 272.072 319.28C272.643 320.66 272.794 322.177 272.503 323.643C272.212 325.107 271.491 326.452 270.435 327.508C269.38 328.563 268.034 329.284 266.57 329.575C265.104 329.866 263.587 329.715 262.207 329.144C260.827 328.573 259.647 327.605 258.819 326.362C257.989 325.12 257.546 323.66 257.546 322.168C257.548 320.167 258.343 318.248 259.76 316.834C261.174 315.418 263.092 314.623 265.095 314.621Z" fill="#F7CEDC"/>
<path d="M401.29 201.153V288.092C399.499 288.862 397.757 289.741 396.074 290.726L392.138 289.395L392.24 289.09V184.632L401.29 201.153Z" fill="#F7CEDC"/>
<path d="M401.29 183.284V201.153L392.238 184.627V180.532C395.166 181.723 398.196 182.644 401.29 183.284Z" fill="#006B99"/>
<path d="M383.79 335.932H367.281L374.993 308.405H380.063C378.733 311.706 378.049 315.23 378.045 318.788C378.093 324.967 380.105 330.972 383.79 335.932Z" fill="#006B99"/>
<path d="M374.998 308.405L367.287 335.932H142.658C139.011 335.932 135.514 334.484 132.935 331.905C130.357 329.328 128.908 325.831 128.908 322.185V256.529L137.96 244.97V298.216C137.961 300.917 139.035 303.51 140.946 305.42C142.858 307.332 145.45 308.405 148.153 308.405H374.998ZM272.658 322.168C272.66 320.675 272.218 319.215 271.388 317.972C270.558 316.73 269.38 315.763 268 315.19C266.62 314.619 265.102 314.467 263.636 314.759C262.17 315.05 260.825 315.768 259.769 316.824C258.711 317.878 257.993 319.223 257.7 320.689C257.408 322.152 257.556 323.672 258.127 325.051C258.698 326.431 259.666 327.611 260.907 328.441C262.147 329.272 263.608 329.715 265.102 329.717C267.105 329.717 269.025 328.92 270.439 327.506C271.855 326.09 272.651 324.17 272.653 322.168H272.658Z" fill="#F7CEDC"/>
<path d="M371.744 188.84C372.277 188.827 372.806 188.921 373.3 189.115C373.797 189.31 374.247 189.601 374.628 189.973C375.01 190.344 375.311 190.788 375.518 191.278C375.725 191.769 375.832 192.295 375.832 192.826C375.832 193.359 375.725 193.886 375.518 194.376C375.311 194.865 375.01 195.309 374.628 195.681C374.247 196.053 373.797 196.344 373.3 196.537C372.806 196.733 372.277 196.827 371.744 196.813H279.827C279.04 196.815 278.268 196.582 277.61 196.145C276.955 195.706 276.441 195.083 276.14 194.355C275.838 193.625 275.759 192.824 275.914 192.05C276.069 191.276 276.449 190.566 277.008 190.009C277.376 189.637 277.817 189.342 278.3 189.141C278.785 188.94 279.304 188.838 279.827 188.84H371.744Z" fill="#CCEFF6"/>
<path d="M371.746 205.888C372.804 205.888 373.818 206.309 374.565 207.056C375.315 207.804 375.734 208.819 375.734 209.877C375.734 210.934 375.315 211.948 374.565 212.695C373.818 213.444 372.804 213.864 371.746 213.864H233.324C232.266 213.862 231.252 213.441 230.503 212.691C229.756 211.944 229.334 210.929 229.334 209.871C229.338 208.815 229.759 207.804 230.507 207.056C231.256 206.311 232.268 205.892 233.324 205.888H371.746Z" fill="#006B99"/>
<path d="M371.744 222.938C372.277 222.925 372.806 223.018 373.301 223.214C373.797 223.407 374.247 223.699 374.629 224.07C375.008 224.442 375.311 224.887 375.518 225.375C375.725 225.866 375.83 226.393 375.83 226.925C375.83 227.456 375.725 227.983 375.518 228.473C375.311 228.964 375.008 229.406 374.629 229.778C374.247 230.15 373.797 230.441 373.301 230.637C372.806 230.83 372.277 230.924 371.744 230.91H326.333C325.273 230.91 324.26 230.491 323.51 229.742C322.763 228.994 322.343 227.979 322.341 226.921C322.343 225.864 322.765 224.85 323.512 224.105C324.261 223.358 325.275 222.938 326.333 222.938H371.744Z" fill="#CCEFF6"/>
<path d="M371.746 239.979C372.804 239.979 373.818 240.399 374.565 241.146C375.315 241.895 375.734 242.909 375.734 243.966C375.734 245.024 375.315 246.037 374.565 246.787C373.818 247.534 372.804 247.953 371.746 247.953H225.574C224.516 247.953 223.501 247.532 222.753 246.783C222.004 246.035 221.582 245.02 221.582 243.962C221.586 242.905 222.008 241.893 222.757 241.146C223.504 240.401 224.518 239.981 225.574 239.979H371.746Z" fill="#006B99"/>
<path d="M371.744 257.035C372.785 257.062 373.776 257.493 374.502 258.237C375.228 258.982 375.637 259.982 375.637 261.022C375.637 262.063 375.228 263.063 374.502 263.806C373.776 264.552 372.785 264.983 371.744 265.01H295.331C294.273 265.008 293.259 264.588 292.51 263.839C291.76 263.092 291.339 262.076 291.339 261.019C291.341 259.961 291.764 258.949 292.512 258.202C293.261 257.457 294.275 257.037 295.331 257.035H371.744Z" fill="#CCEFF6"/>
<path d="M371.746 274.084C372.277 274.07 372.808 274.164 373.302 274.358C373.797 274.553 374.249 274.844 374.629 275.216C375.01 275.588 375.313 276.03 375.52 276.521C375.727 277.011 375.832 277.538 375.832 278.069C375.832 278.602 375.727 279.129 375.52 279.619C375.313 280.108 375.01 280.552 374.629 280.924C374.249 281.296 373.797 281.587 373.302 281.78C372.808 281.976 372.277 282.07 371.746 282.056H349.586C348.528 282.056 347.512 281.635 346.765 280.887C346.018 280.138 345.596 279.125 345.596 278.065C345.598 277.01 346.02 275.998 346.769 275.251C347.516 274.503 348.53 274.084 349.586 274.084H371.746Z" fill="#006B99"/>
<path d="M371.746 291.13C372.804 291.13 373.818 291.552 374.565 292.299C375.315 293.046 375.734 294.062 375.734 295.119C375.734 296.175 375.315 297.191 374.565 297.938C373.818 298.685 372.804 299.107 371.746 299.107H248.827C247.769 299.105 246.753 298.683 246.004 297.936C245.257 297.187 244.835 296.171 244.833 295.114C244.839 294.058 245.261 293.044 246.01 292.299C246.757 291.552 247.771 291.132 248.827 291.13H371.746Z" fill="#CCEFF6"/>
<path d="M372.055 171.822L368.188 179.766H248.827C247.769 179.766 246.755 179.346 246.006 178.598C245.259 177.85 244.839 176.836 244.839 175.779C244.839 174.721 245.259 173.707 246.006 172.959C246.755 172.211 247.769 171.791 248.827 171.791H371.746C371.854 171.791 371.948 171.815 372.055 171.822Z" fill="#006B99"/>
<path d="M142.658 137.259H370.754C369.748 139.362 369.002 141.579 368.531 143.862H148.153C145.45 143.863 142.858 144.937 140.946 146.848C139.035 148.759 137.961 151.35 137.96 154.053V186.584C135.152 184.504 132.115 182.751 128.908 181.361V151.007C128.908 149.201 129.264 147.414 129.955 145.746C130.646 144.078 131.658 142.562 132.935 141.286C134.212 140.009 135.728 138.997 137.396 138.306C139.064 137.615 140.852 137.259 142.658 137.259Z" fill="#F7CEDC"/>
<path d="M369.142 157.363L368.954 157.416H174.502V149.651H367.975C367.99 152.265 368.383 154.862 369.142 157.363Z" fill="#006B99"/>
<path d="M327.569 274.084C328.61 274.109 329.6 274.54 330.327 275.285C331.053 276.03 331.461 277.029 331.461 278.069C331.461 279.111 331.053 280.11 330.327 280.855C329.6 281.6 328.61 282.031 327.569 282.056H173.645C172.587 282.056 171.572 281.635 170.824 280.887C170.076 280.138 169.655 279.125 169.654 278.067C169.658 277.009 170.079 275.998 170.827 275.251C171.575 274.505 172.588 274.084 173.645 274.084H327.569Z" fill="#CCEFF6"/>
<path d="M304.314 222.938C305.355 222.963 306.346 223.394 307.072 224.139C307.798 224.885 308.206 225.883 308.206 226.925C308.206 227.966 307.798 228.964 307.072 229.709C306.346 230.454 305.355 230.886 304.314 230.91H173.645C172.587 230.91 171.572 230.489 170.824 229.742C170.076 228.993 169.655 227.979 169.654 226.921C169.656 225.864 170.078 224.85 170.826 224.105C171.574 223.358 172.588 222.938 173.645 222.938H304.314Z" fill="#006B99"/>
<path d="M294.788 355.7L298.061 370.121H293.439H238.735H232.139L239.891 335.932L294.788 355.7Z" fill="#F7CEDC"/>
<path d="M290.308 335.932L294.788 355.7L239.889 335.932H290.308Z" fill="#006B99"/>
<path d="M273.312 257.035C274.352 257.062 275.341 257.493 276.068 258.237C276.796 258.982 277.202 259.982 277.202 261.022C277.202 262.063 276.796 263.063 276.068 263.806C275.341 264.552 274.352 264.983 273.312 265.01H173.645C172.587 265.008 171.572 264.588 170.824 263.839C170.076 263.092 169.655 262.076 169.654 261.019C169.656 259.961 170.078 258.949 170.826 258.202C171.574 257.455 172.588 257.035 173.645 257.035H273.312Z" fill="#006B99"/>
<path d="M257.811 188.84C258.341 188.827 258.87 188.921 259.367 189.115C259.861 189.31 260.311 189.601 260.693 189.973C261.074 190.344 261.377 190.788 261.584 191.278C261.789 191.769 261.896 192.295 261.896 192.826C261.896 193.359 261.789 193.886 261.584 194.376C261.377 194.865 261.074 195.309 260.693 195.681C260.311 196.053 259.861 196.344 259.367 196.537C258.87 196.733 258.341 196.827 257.811 196.813H173.644C173.113 196.827 172.584 196.733 172.088 196.537C171.593 196.344 171.142 196.053 170.761 195.681C170.381 195.309 170.078 194.865 169.871 194.376C169.665 193.886 169.558 193.359 169.558 192.826C169.558 192.295 169.665 191.769 169.871 191.278C170.078 190.788 170.381 190.344 170.761 189.973C171.142 189.601 171.593 189.31 172.088 189.115C172.584 188.921 173.113 188.827 173.644 188.84H257.811Z" fill="#006B99"/>
<path d="M226.806 171.791C227.864 171.791 228.88 172.211 229.627 172.959C230.375 173.707 230.794 174.721 230.794 175.779C230.794 176.836 230.375 177.85 229.627 178.598C228.88 179.346 227.864 179.766 226.806 179.766H173.645C172.587 179.766 171.572 179.345 170.824 178.597C170.076 177.849 169.655 176.834 169.654 175.776C169.657 174.719 170.078 173.706 170.826 172.959C171.574 172.212 172.588 171.792 173.645 171.791H226.806Z" fill="#CCEFF6"/>
<path d="M226.806 291.13C227.864 291.13 228.88 291.552 229.627 292.299C230.375 293.046 230.794 294.062 230.794 295.119C230.794 296.175 230.375 297.191 229.627 297.938C228.88 298.685 227.864 299.107 226.806 299.107H173.645C172.587 299.105 171.572 298.683 170.824 297.936C170.076 297.187 169.655 296.171 169.654 295.114C169.658 294.058 170.079 293.044 170.827 292.299C171.575 291.552 172.588 291.132 173.645 291.13H226.806Z" fill="#006B99"/>
<path d="M211.305 205.888C212.363 205.888 213.379 206.309 214.126 207.056C214.873 207.804 215.295 208.819 215.295 209.877C215.295 210.934 214.873 211.948 214.126 212.695C213.379 213.444 212.363 213.864 211.305 213.864H173.645C172.587 213.862 171.572 213.441 170.824 212.693C170.076 211.944 169.655 210.929 169.654 209.871C169.658 208.815 170.079 207.802 170.827 207.056C171.575 206.309 172.588 205.89 173.645 205.888H211.305Z" fill="#CCEFF6"/>
<path d="M203.553 239.979C204.611 239.979 205.627 240.399 206.374 241.146C207.122 241.895 207.543 242.909 207.543 243.966C207.543 245.024 207.122 246.037 206.374 246.787C205.627 247.534 204.611 247.953 203.553 247.953H173.645C172.587 247.953 171.572 247.532 170.824 246.783C170.076 246.034 169.655 245.02 169.654 243.962C169.658 242.905 170.079 241.893 170.827 241.146C171.575 240.401 172.588 239.979 173.645 239.979H203.553Z" fill="#CCEFF6"/>
<path d="M151.463 207.114C151.989 207.309 152.447 207.652 152.785 208.101C153.123 208.549 153.325 209.083 153.369 209.643C153.413 210.2 153.296 210.762 153.032 211.256C152.768 211.75 152.369 212.161 151.88 212.436C151.88 212.274 151.88 212.103 151.88 211.933C151.88 211.538 151.88 211.143 151.849 210.746V210.655C151.798 209.467 151.669 208.284 151.463 207.114Z" fill="#006B99"/>
<path d="M150.409 172.806C150.997 172.804 151.572 172.976 152.062 173.302C152.551 173.627 152.934 174.09 153.16 174.632C153.386 175.175 153.446 175.772 153.333 176.349C153.219 176.926 152.937 177.456 152.522 177.872C152.107 178.288 151.578 178.572 151.001 178.688C150.425 178.803 149.827 178.745 149.284 178.52C148.741 178.296 148.276 177.915 147.949 177.426C147.623 176.938 147.448 176.363 147.448 175.775C147.448 174.99 147.76 174.236 148.315 173.679C148.87 173.122 149.623 172.808 150.409 172.806Z" fill="#006B99"/>
<path d="M150.409 189.856C150.996 189.855 151.571 190.027 152.06 190.353C152.549 190.678 152.93 191.141 153.156 191.682C153.382 192.225 153.442 192.822 153.328 193.397C153.214 193.974 152.932 194.503 152.517 194.918C152.102 195.334 151.573 195.618 150.998 195.733C150.422 195.848 149.825 195.79 149.282 195.566C148.739 195.342 148.275 194.961 147.949 194.472C147.622 193.985 147.448 193.411 147.448 192.824C147.448 192.037 147.76 191.284 148.315 190.728C148.87 190.171 149.623 189.858 150.409 189.856Z" fill="#006B99"/>
<path d="M150.409 223.954C151.196 223.954 151.951 224.266 152.508 224.823C153.064 225.379 153.377 226.134 153.377 226.921C153.377 227.707 153.064 228.462 152.508 229.019C151.951 229.575 151.196 229.887 150.409 229.887C149.776 229.874 149.164 229.659 148.66 229.276C148.156 228.895 147.786 228.362 147.602 227.757L147.194 227.5C147.894 226.414 148.523 225.283 149.077 224.116L149.209 224.176C149.456 223.933 150.206 223.954 150.409 223.954Z" fill="#006B99"/>
<path d="M150.409 258.049C150.997 258.047 151.572 258.219 152.062 258.545C152.551 258.871 152.934 259.333 153.16 259.877C153.386 260.419 153.446 261.015 153.333 261.592C153.219 262.168 152.937 262.699 152.522 263.115C152.107 263.532 151.578 263.816 151.001 263.931C150.425 264.046 149.827 263.988 149.284 263.764C148.741 263.538 148.276 263.159 147.949 262.67C147.623 262.182 147.448 261.607 147.448 261.019C147.448 260.233 147.76 259.478 148.315 258.923C148.87 258.365 149.623 258.051 150.409 258.049Z" fill="#006B99"/>
<path d="M150.409 275.099C150.996 275.097 151.571 275.27 152.06 275.595C152.549 275.921 152.93 276.383 153.156 276.925C153.382 277.467 153.442 278.065 153.328 278.64C153.214 279.217 152.932 279.745 152.517 280.161C152.102 280.577 151.573 280.861 150.998 280.976C150.422 281.09 149.825 281.033 149.282 280.809C148.739 280.585 148.275 280.203 147.949 279.715C147.622 279.228 147.448 278.653 147.448 278.067C147.448 277.28 147.76 276.527 148.315 275.971C148.87 275.413 149.623 275.101 150.409 275.099Z" fill="#006B99"/>
<path d="M150.409 292.146C150.997 292.144 151.572 292.317 152.062 292.642C152.552 292.968 152.934 293.432 153.16 293.974C153.386 294.516 153.446 295.114 153.332 295.691C153.219 296.267 152.937 296.798 152.521 297.214C152.106 297.63 151.577 297.913 151 298.028C150.423 298.143 149.825 298.086 149.282 297.86C148.739 297.635 148.275 297.254 147.948 296.765C147.622 296.277 147.448 295.702 147.448 295.114C147.448 294.328 147.76 293.575 148.315 293.018C148.87 292.462 149.623 292.148 150.409 292.146Z" fill="#006B99"/>
<path d="M133.859 239.992L138.171 242.031L137.953 242.495V244.97L128.901 256.529V242.495C130.603 241.763 132.26 240.927 133.859 239.992Z" fill="#006B99"/>
<path d="M119.103 245.681L119.187 246.062C115.181 255.144 110.084 264.157 104.112 269.171C102.174 270.798 100.308 272.446 98.5165 274.114C97.8409 264.211 97.1129 254.19 96.4158 246.062C99.8506 246.687 103.335 247.001 106.826 246.999C110.954 247.005 115.07 246.562 119.103 245.681Z" fill="#006B99"/>
<path d="M91.0219 291.079C92.4954 287.628 94.767 284.576 97.6499 282.173C98.0907 281.834 98.5315 281.491 98.9818 281.165C106.094 276.163 113.844 272.135 122.026 269.19C121.808 269.654 113.484 287.285 105.497 294.02C103.646 295.576 101.792 296.972 100.041 298.331C98.2635 299.682 96.5827 301.155 95.0102 302.74C93.2744 304.449 91.9013 306.489 90.9732 308.742C90.0452 310.994 89.581 313.41 89.6086 315.845V316.24H86.1927V315.845C86.2362 311.668 86.6255 307.503 87.3569 303.391C88.0537 299.149 89.2853 295.01 91.0219 291.079Z" fill="#CCEFF6"/>
<path d="M100.889 315.845V316.24H96.7349C96.5329 311.699 95.9519 307.185 94.9983 302.74C96.5706 301.155 98.2517 299.682 100.029 298.331C100.563 307.321 100.889 314.046 100.889 315.845Z" fill="#006B99"/>
<path d="M98.9814 281.158C98.5311 281.491 98.0903 281.834 97.6496 282.173C94.7666 284.576 92.495 287.628 91.0215 291.079C90.0992 289.642 88.959 288.048 87.6415 286.273C84.5802 282.135 80.6133 277.098 76.5436 271.501C71.6428 264.939 67.268 257.999 63.4598 250.749C63.4598 250.749 63.4359 250.71 63.3976 250.641C62.825 249.501 62.2813 248.371 61.7639 247.223C44.8114 209.84 55.7945 172.566 55.7945 172.566C61.6062 177.866 67.0589 183.547 72.1169 189.571C68.9394 192.382 66.3792 195.819 64.5972 199.668C62.8154 203.517 61.8507 207.694 61.7639 211.934C61.7639 228.512 76.5436 242.406 96.416 246.064C97.113 254.192 97.8412 264.212 98.5167 274.116C98.6725 276.479 98.8354 278.832 98.9814 281.158Z" fill="#CCEFF6"/>
<path d="M85.6903 289.216C85.6903 289.216 86.9624 296.788 87.3671 303.383C86.6358 307.495 86.2464 311.66 86.2029 315.837V316.232H82.7989V315.837C83.9968 307.824 82.7679 298.804 82.7989 294.541C83.6622 292.713 84.6275 290.937 85.6903 289.216Z" fill="#006B99"/>
<path d="M87.6422 286.273C86.9619 287.231 86.3104 288.218 85.6899 289.216C84.6273 290.937 83.6618 292.713 82.7987 294.541C79.657 301.331 78.0055 308.713 77.9551 316.194V316.232H76.5898C76.5072 307.916 75.6483 299.628 74.0242 291.471C74.8076 287.371 75.2219 282.721 75.7226 277.977C75.9478 275.839 76.1873 273.678 76.4819 271.547L76.5441 271.499C80.6141 277.101 84.5809 282.131 87.6422 286.273Z" fill="#CCEFF6"/>
<path d="M76.5894 316.24H70.5529C70.1578 295.704 56.2692 289.218 42.3637 277.502C27.9911 265.404 13.0342 233.469 13.0342 233.469C27.9846 238.852 42.1128 246.29 55.0115 255.57C55.4133 255.911 55.8322 256.231 56.2667 256.528C66.3274 264.418 71.4513 278.677 74.024 291.472C75.6485 299.63 76.5074 307.922 76.5894 316.24Z" fill="#CCEFF6"/>
<path d="M76.5442 271.501L76.4819 271.549C76.1873 273.681 75.9478 275.841 75.7226 277.981C74.3429 268.828 67.0104 263.962 56.2693 256.531C55.8502 256.206 55.4382 255.88 55.0118 255.573C45.2696 247.405 42.2251 227.481 42.2251 227.481C53.3782 234.038 62.5622 249.233 63.3981 250.643C63.4364 250.712 63.4604 250.751 63.4604 250.751C67.2687 258.001 71.6435 264.941 76.5442 271.501Z" fill="#006B99"/>
<path d="M128.908 242.495C130.608 241.763 132.262 240.927 133.859 239.992L138.171 242.031L159.251 251.95L145.597 229.811C146.169 229.06 146.713 228.293 147.209 227.5C147.909 226.414 148.538 225.281 149.092 224.115C150.855 220.468 151.806 216.485 151.88 212.437C151.88 212.274 151.88 212.103 151.88 211.933C151.88 211.538 151.88 211.143 151.849 210.747" stroke="#006B99" stroke-width="1.54342" stroke-linecap="round" stroke-linejoin="round"/>
<path d="M151.859 210.655C151.804 209.467 151.672 208.285 151.463 207.114C149.758 198.795 144.925 191.447 137.96 186.585C135.152 184.504 132.115 182.752 128.908 181.361C121.937 178.354 114.419 176.824 106.827 176.868C94.0744 176.597 81.6853 181.127 72.1176 189.562C68.9402 192.372 66.3799 195.811 64.5979 199.661C62.8161 203.51 61.8515 207.685 61.7646 211.927C61.7646 228.502 76.5444 242.397 96.4168 246.055C99.8516 246.679 103.336 246.993 106.827 246.992C110.955 246.997 115.071 246.557 119.104 245.673C122.468 244.938 125.752 243.874 128.908 242.499" stroke="#006B99" stroke-width="1.54342" stroke-linecap="round" stroke-linejoin="round"/>
<path d="M372.063 171.822L374.264 167.298C373.287 166.026 372.407 164.684 371.629 163.284C370.583 161.408 369.746 159.422 369.134 157.363C368.377 154.862 367.985 152.265 367.971 149.651C367.971 149.575 367.971 149.505 367.971 149.426C367.969 147.557 368.157 145.693 368.531 143.862C369 141.58 369.746 139.363 370.75 137.26C377.104 123.886 393.635 114.354 413.028 114.354C437.908 114.354 458.085 130.053 458.085 149.426C458.085 168.799 437.908 184.494 413.028 184.494C409.084 184.5 405.15 184.093 401.291 183.277C398.196 182.643 395.166 181.724 392.24 180.532C390.091 179.668 388.01 178.647 386.012 177.479L364.932 186.47L368.203 179.764L372.076 171.819" stroke="#006B99" stroke-width="1.54342" stroke-linecap="round" stroke-linejoin="round"/>
<path d="M392.138 289.396L378.658 284.833L384.34 300.912C382.577 303.201 381.136 305.723 380.061 308.405C378.731 311.706 378.047 315.23 378.045 318.788C378.093 324.967 380.107 330.972 383.794 335.932C391.506 346.625 406.225 353.856 423.112 353.856C447.993 353.856 468.169 338.155 468.169 318.788C468.169 299.423 447.993 283.723 423.112 283.723C415.617 283.685 408.195 285.174 401.294 288.101C399.502 288.871 397.761 289.751 396.078 290.736L392.138 289.396Z" stroke="#006B99" stroke-width="1.54342" stroke-linecap="round" stroke-linejoin="round"/>
<path d="M128.908 181.361V151.007C128.908 147.361 130.357 143.864 132.935 141.286C135.514 138.708 139.011 137.259 142.658 137.259H370.754" stroke="#006B99" stroke-width="1.54342" stroke-linecap="round" stroke-linejoin="round"/>
<path d="M239.897 335.932H142.658C139.011 335.932 135.514 334.484 132.935 331.905C130.357 329.328 128.908 325.831 128.908 322.185V242.497" stroke="#006B99" stroke-width="1.54342" stroke-linecap="round" stroke-linejoin="round"/>
<path d="M383.789 335.932H367.279H290.308" stroke="#006B99" stroke-width="1.54342" stroke-linecap="round" stroke-linejoin="round"/>
<path d="M401.291 183.284V201.153V288.101" stroke="#006B99" stroke-width="1.54342" stroke-linecap="round" stroke-linejoin="round"/>
<path d="M137.96 186.594V154.053C137.961 151.351 139.035 148.759 140.946 146.848C142.858 144.937 145.45 143.863 148.153 143.863H368.531" stroke="#006B99" stroke-width="1.54342" stroke-linecap="round" stroke-linejoin="round"/>
<path d="M380.063 308.407H148.153C145.45 308.405 142.858 307.332 140.946 305.422C139.035 303.51 137.961 300.917 137.96 298.216V242.497" stroke="#006B99" stroke-width="1.54342" stroke-linecap="round" stroke-linejoin="round"/>
<path d="M392.238 180.542V184.632V289.094" stroke="#006B99" stroke-width="1.54342" stroke-linecap="round" stroke-linejoin="round"/>
<path d="M137.96 163.283H371.635" stroke="#006B99" stroke-width="1.54342" stroke-linecap="round" stroke-linejoin="round"/>
<path d="M368.956 157.416H174.505V149.651H367.908" stroke="#006B99" stroke-width="1.54342" stroke-linecap="round" stroke-linejoin="round"/>
<path d="M272.653 322.168C272.653 323.662 272.21 325.122 271.382 326.364C270.552 327.605 269.374 328.575 267.994 329.148C266.614 329.721 265.097 329.87 263.631 329.581C262.165 329.289 260.819 328.571 259.761 327.515C258.706 326.46 257.985 325.115 257.692 323.651C257.401 322.185 257.548 320.668 258.119 319.288C258.69 317.907 259.658 316.726 260.9 315.897C262.142 315.065 263.6 314.623 265.095 314.621C267.097 314.621 269.019 315.416 270.435 316.83C271.854 318.246 272.651 320.166 272.653 322.168Z" stroke="#006B99" stroke-width="1.54342" stroke-linecap="round" stroke-linejoin="round"/>
<path d="M232.139 370.121L239.891 335.932H290.31L294.788 355.7L298.061 370.121" stroke="#006B99" stroke-width="1.54342" stroke-linecap="round" stroke-linejoin="round"/>
<path d="M293.439 370.119H238.735" stroke="#006B99" stroke-width="1.54342" stroke-linecap="round" stroke-linejoin="round"/>
<path d="M239.889 335.932L294.788 355.7" stroke="#006B99" stroke-width="1.54342" stroke-linecap="round" stroke-linejoin="round"/>
<path d="M211.282 370.119H223.234" stroke="#006B99" stroke-width="1.54342" stroke-linecap="round" stroke-linejoin="round"/>
<path d="M226.783 370.119H232.138H238.735" stroke="#006B99" stroke-width="1.54342" stroke-linecap="round" stroke-linejoin="round"/>
<path d="M40.7662 370.119H52.7194" stroke="#006B99" stroke-width="1.54342" stroke-linecap="round" stroke-linejoin="round"/>
<path d="M99.4078 370.119H130.225" stroke="#006B99" stroke-width="1.54342" stroke-linecap="round" stroke-linejoin="round"/>
<path d="M56.2686 370.119H72.4354" stroke="#006B99" stroke-width="1.54342" stroke-linecap="round" stroke-linejoin="round"/>
<path d="M293.441 370.119H298.061H305.391" stroke="#006B99" stroke-width="1.54342" stroke-linecap="round" stroke-linejoin="round"/>
<path d="M308.94 370.119H320.893" stroke="#006B99" stroke-width="1.54342" stroke-linecap="round" stroke-linejoin="round"/>
<path d="M159.538 158.316L167.467 153.744L159.538 149.163" stroke="#006B99" stroke-width="1.54342" stroke-linecap="round" stroke-linejoin="round"/>
<path d="M154.414 149.163L146.478 153.744L154.414 158.316" stroke="#006B99" stroke-width="1.54342" stroke-linecap="round" stroke-linejoin="round"/>
<path d="M392.238 184.632L401.29 201.153" stroke="#006B99" stroke-width="1.54342" stroke-linecap="round" stroke-linejoin="round"/>
<path d="M374.993 308.405L367.281 335.932" stroke="#006B99" stroke-width="1.54342" stroke-linecap="round" stroke-linejoin="round"/>
<path d="M137.96 244.97L128.908 256.529" stroke="#006B99" stroke-width="1.54342" stroke-linecap="round" stroke-linejoin="round"/>
<path d="M99.4078 370.12H72.4354C68.1478 370.12 64.0357 368.418 61.0039 365.387C57.972 362.354 56.2686 358.244 56.2686 353.956V316.24H115.575V353.956C115.574 358.244 113.87 362.354 110.839 365.385C107.807 368.416 103.695 370.12 99.4078 370.12Z" stroke="#006B99" stroke-width="1.54342" stroke-linecap="round" stroke-linejoin="round"/>
<path d="M76.5894 316.24C76.5074 307.922 75.6485 299.63 74.024 291.472C71.4513 278.677 66.3274 264.408 56.2692 256.528C55.8499 256.202 55.4379 255.876 55.0115 255.57C42.1128 246.29 27.9846 238.852 13.0342 233.469C13.0342 233.469 27.9936 265.404 42.3637 277.502C56.2692 289.218 70.1505 295.704 70.5529 316.24" stroke="#006B99" stroke-width="1.54342" stroke-linecap="round" stroke-linejoin="round"/>
<path d="M82.7981 294.549C79.6567 301.337 78.005 308.721 77.9548 316.201" stroke="#006B99" stroke-width="1.54342" stroke-linecap="round" stroke-linejoin="round"/>
<path d="M87.6419 286.273C86.9616 287.231 86.31 288.218 85.6897 289.216C84.6269 290.937 83.6616 292.713 82.7983 294.541" stroke="#006B99" stroke-width="1.54342" stroke-linecap="round" stroke-linejoin="round"/>
<path d="M119.187 246.062C115.182 255.144 110.084 264.157 104.113 269.171C102.174 270.798 100.309 272.446 98.5168 274.114" stroke="#006B99" stroke-width="1.54342" stroke-linecap="round" stroke-linejoin="round"/>
<path d="M74.0242 291.471C74.8076 287.371 75.2219 282.723 75.7226 277.977C75.9478 275.839 76.1873 273.679 76.4819 271.547" stroke="#006B99" stroke-width="1.54342" stroke-linecap="round" stroke-linejoin="round"/>
<path d="M122.042 269.171C121.817 269.65 113.493 287.274 105.514 294.008C103.662 295.564 101.808 296.961 100.057 298.319C98.2802 299.67 96.5994 301.143 95.0268 302.728C93.291 304.437 91.918 306.478 90.9897 308.729C90.0616 310.982 89.5975 313.398 89.6251 315.833" stroke="#006B99" stroke-width="1.54342" stroke-linecap="round" stroke-linejoin="round"/>
<path d="M98.9819 281.158C106.094 276.157 113.845 272.129 122.026 269.183" stroke="#006B99" stroke-width="1.54342" stroke-linecap="round" stroke-linejoin="round"/>
<path d="M86.1927 315.845C86.2362 311.668 86.6255 307.503 87.3569 303.391C88.0543 299.151 89.2859 295.016 91.0219 291.086C92.4954 287.634 94.767 284.584 97.6499 282.181C98.0907 281.842 98.5315 281.499 98.9818 281.173" stroke="#006B99" stroke-width="1.54342" stroke-linecap="round" stroke-linejoin="round"/>
<path d="M94.9983 302.74C95.9519 307.185 96.5329 311.699 96.7349 316.24" stroke="#006B99" stroke-width="1.54342" stroke-linecap="round" stroke-linejoin="round"/>
<path d="M63.46 250.757C67.2682 258.007 71.6432 264.946 76.5438 271.509C80.616 277.105 84.5805 282.143 87.6419 286.281C88.9593 288.055 90.0996 289.657 91.0217 291.085" stroke="#006B99" stroke-width="1.54342" stroke-linecap="round" stroke-linejoin="round"/>
<path d="M72.1169 189.568C67.0589 183.545 61.6062 177.864 55.7945 172.564C55.7945 172.564 44.8114 209.836 61.7639 247.221C62.2813 248.367 62.825 249.498 63.3976 250.638" stroke="#006B99" stroke-width="1.54342" stroke-linecap="round" stroke-linejoin="round"/>
<path d="M98.9814 281.173C98.8351 278.839 98.6723 276.485 98.5166 274.122C97.8411 264.218 97.1129 254.198 96.4158 246.068" stroke="#006B99" stroke-width="1.54342" stroke-linecap="round" stroke-linejoin="round"/>
<path d="M100.888 315.845C100.888 314.046 100.563 307.321 100.036 298.331" stroke="#006B99" stroke-width="1.54342" stroke-linecap="round" stroke-linejoin="round"/>
<path d="M63.4604 250.756C63.4604 250.756 63.4364 250.718 63.3981 250.647C62.5622 249.237 53.3782 234.041 42.2251 227.487C42.2251 227.487 45.2696 247.409 55.0118 255.577C55.4141 255.918 55.8338 256.238 56.2693 256.535C67.0104 263.96 74.3429 268.834 75.7226 277.985" stroke="#006B99" stroke-width="1.54342" stroke-linecap="round" stroke-linejoin="round"/>
<path d="M82.7989 294.541C82.7679 298.804 83.9966 307.825 82.7989 315.837" stroke="#006B99" stroke-width="1.54342" stroke-linecap="round" stroke-linejoin="round"/>
<path d="M85.6893 289.216C85.6893 289.216 86.9612 296.788 87.3661 303.383" stroke="#006B99" stroke-width="1.54342" stroke-linecap="round" stroke-linejoin="round"/>
<path d="M163.5 168.823V299.881" stroke="#006B99" stroke-width="1.54342" stroke-linecap="round" stroke-linejoin="round"/>
<path d="M226.806 179.766H173.645C172.587 179.766 171.572 179.345 170.824 178.597C170.076 177.849 169.655 176.834 169.654 175.776C169.657 174.719 170.078 173.706 170.826 172.959C171.574 172.212 172.588 171.792 173.645 171.791H226.806C227.864 171.791 228.88 172.211 229.627 172.959C230.375 173.707 230.794 174.721 230.794 175.779C230.794 176.836 230.375 177.85 229.627 178.598C228.88 179.346 227.864 179.766 226.806 179.766Z" stroke="#006B99" stroke-width="1.54342" stroke-linecap="round" stroke-linejoin="round"/>
<path d="M372.063 171.822C371.948 171.822 371.854 171.791 371.746 171.791H248.827C247.769 171.791 246.755 172.211 246.006 172.959C245.259 173.707 244.839 174.721 244.839 175.779C244.839 176.836 245.259 177.85 246.006 178.598C246.755 179.346 247.769 179.766 248.827 179.766H368.188L372.063 171.822Z" stroke="#006B99" stroke-width="1.54342" stroke-linecap="round" stroke-linejoin="round"/>
<path d="M153.377 175.775C153.376 176.362 153.202 176.934 152.875 177.421C152.549 177.908 152.086 178.287 151.544 178.511C151.002 178.735 150.406 178.793 149.831 178.678C149.256 178.564 148.728 178.281 148.314 177.866C147.899 177.452 147.617 176.924 147.503 176.349C147.389 175.774 147.447 175.178 147.672 174.637C147.896 174.095 148.276 173.632 148.763 173.306C149.25 172.98 149.823 172.806 150.409 172.806C150.799 172.805 151.186 172.882 151.546 173.031C151.907 173.18 152.234 173.398 152.51 173.674C152.786 173.95 153.004 174.278 153.153 174.639C153.302 174.999 153.378 175.385 153.377 175.775Z" stroke="#006B99" stroke-width="1.54342" stroke-linecap="round" stroke-linejoin="round"/>
<path d="M257.811 196.813H173.644C173.113 196.827 172.584 196.733 172.088 196.537C171.593 196.344 171.142 196.053 170.761 195.681C170.381 195.309 170.078 194.865 169.871 194.376C169.665 193.886 169.558 193.359 169.558 192.826C169.558 192.295 169.665 191.769 169.871 191.278C170.078 190.788 170.381 190.344 170.761 189.973C171.142 189.601 171.593 189.31 172.088 189.115C172.584 188.921 173.113 188.827 173.644 188.84H257.811C258.341 188.827 258.87 188.921 259.367 189.115C259.861 189.31 260.311 189.601 260.693 189.973C261.074 190.344 261.377 190.788 261.584 191.278C261.789 191.769 261.896 192.295 261.896 192.826C261.896 193.359 261.789 193.886 261.584 194.376C261.377 194.865 261.074 195.309 260.693 195.681C260.311 196.053 259.861 196.344 259.367 196.537C258.87 196.733 258.341 196.827 257.811 196.813Z" stroke="#006B99" stroke-width="1.54342" stroke-linecap="round" stroke-linejoin="round"/>
<path d="M371.744 196.813H279.827C279.04 196.815 278.268 196.582 277.61 196.145C276.955 195.706 276.441 195.083 276.14 194.355C275.838 193.625 275.759 192.824 275.914 192.05C276.069 191.276 276.449 190.566 277.008 190.009C277.376 189.637 277.817 189.342 278.3 189.141C278.785 188.94 279.304 188.838 279.827 188.84H371.744C372.277 188.827 372.806 188.921 373.3 189.115C373.797 189.31 374.247 189.601 374.628 189.973C375.01 190.344 375.311 190.788 375.518 191.278C375.725 191.769 375.832 192.295 375.832 192.826C375.832 193.359 375.725 193.886 375.518 194.376C375.311 194.865 375.01 195.309 374.628 195.681C374.247 196.053 373.797 196.344 373.3 196.537C372.806 196.733 372.277 196.827 371.744 196.813Z" stroke="#006B99" stroke-width="1.54342" stroke-linecap="round" stroke-linejoin="round"/>
<path d="M153.377 192.824C153.377 193.411 153.203 193.983 152.876 194.47C152.55 194.957 152.087 195.336 151.545 195.56C151.004 195.784 150.408 195.844 149.832 195.729C149.258 195.614 148.729 195.332 148.315 194.918C147.9 194.503 147.618 193.976 147.503 193.401C147.389 192.824 147.447 192.228 147.671 191.688C147.896 191.146 148.275 190.683 148.763 190.357C149.25 190.031 149.823 189.857 150.409 189.856C150.799 189.855 151.185 189.932 151.546 190.081C151.906 190.23 152.234 190.448 152.509 190.724C152.785 190.999 153.004 191.327 153.153 191.688C153.301 192.048 153.378 192.433 153.377 192.824Z" stroke="#006B99" stroke-width="1.54342" stroke-linecap="round" stroke-linejoin="round"/>
<path d="M211.305 213.874H173.645C172.587 213.872 171.572 213.45 170.824 212.703C170.076 211.954 169.655 210.938 169.654 209.881C169.658 208.823 170.079 207.811 170.827 207.066C171.575 206.319 172.588 205.899 173.645 205.897H211.305C212.363 205.897 213.379 206.317 214.126 207.066C214.873 207.813 215.295 208.827 215.295 209.884C215.295 210.942 214.873 211.958 214.126 212.705C213.379 213.452 212.363 213.874 211.305 213.874Z" stroke="#006B99" stroke-width="1.54342" stroke-linecap="round" stroke-linejoin="round"/>
<path d="M371.746 213.874H233.324C232.266 213.872 231.252 213.45 230.503 212.701C229.756 211.954 229.334 210.938 229.334 209.881C229.338 208.825 229.759 207.813 230.507 207.066C231.256 206.321 232.268 205.899 233.324 205.897H371.746C372.804 205.897 373.818 206.317 374.565 207.066C375.315 207.813 375.734 208.827 375.734 209.884C375.734 210.942 375.315 211.958 374.565 212.705C373.818 213.452 372.804 213.874 371.746 213.874Z" stroke="#006B99" stroke-width="1.54342" stroke-linecap="round" stroke-linejoin="round"/>
<path d="M151.889 211.933C151.889 212.103 151.889 212.274 151.872 212.436C152.361 212.161 152.761 211.75 153.024 211.256C153.288 210.762 153.405 210.2 153.361 209.643C153.317 209.083 153.115 208.549 152.777 208.101C152.44 207.652 151.981 207.309 151.456 207.114H151.439C151.651 208.288 151.788 209.472 151.851 210.664V210.76C151.879 211.143 151.889 211.538 151.889 211.933Z" stroke="#006B99" stroke-width="1.54342" stroke-linecap="round" stroke-linejoin="round"/>
<path d="M304.314 230.91H173.645C172.587 230.91 171.572 230.489 170.824 229.742C170.076 228.993 169.655 227.979 169.654 226.921C169.656 225.864 170.078 224.85 170.826 224.105C171.574 223.358 172.588 222.938 173.645 222.938H304.314C305.355 222.963 306.346 223.394 307.072 224.139C307.798 224.885 308.206 225.883 308.206 226.925C308.206 227.966 307.798 228.964 307.072 229.709C306.346 230.454 305.355 230.886 304.314 230.91Z" stroke="#006B99" stroke-width="1.54342" stroke-linecap="round" stroke-linejoin="round"/>
<path d="M371.744 230.91H326.333C325.273 230.91 324.26 230.491 323.51 229.742C322.763 228.994 322.343 227.979 322.341 226.921C322.343 225.864 322.765 224.85 323.512 224.105C324.261 223.358 325.275 222.938 326.333 222.938H371.744C372.277 222.925 372.806 223.018 373.301 223.214C373.797 223.407 374.247 223.699 374.629 224.07C375.008 224.442 375.311 224.887 375.518 225.375C375.725 225.866 375.83 226.393 375.83 226.925C375.83 227.456 375.725 227.983 375.518 228.473C375.311 228.964 375.008 229.406 374.629 229.778C374.247 230.15 373.797 230.441 373.301 230.637C372.806 230.83 372.277 230.924 371.744 230.91Z" stroke="#006B99" stroke-width="1.54342" stroke-linecap="round" stroke-linejoin="round"/>
<path d="M149.214 224.172C149.454 223.932 150.206 223.95 150.412 223.95C151.199 223.95 151.954 224.262 152.51 224.818C153.067 225.375 153.38 226.13 153.38 226.916C153.38 227.703 153.067 228.458 152.51 229.016C151.954 229.571 151.199 229.884 150.412 229.884C149.779 229.868 149.167 229.656 148.663 229.272C148.159 228.889 147.789 228.358 147.604 227.753" stroke="#006B99" stroke-width="1.54342" stroke-linecap="round" stroke-linejoin="round"/>
<path d="M203.553 247.961H173.645C172.587 247.959 171.572 247.538 170.824 246.79C170.076 246.041 169.655 245.026 169.654 243.968C169.658 242.913 170.079 241.899 170.827 241.154C171.575 240.406 172.588 239.987 173.645 239.985H203.553C204.611 239.985 205.627 240.406 206.374 241.154C207.122 241.901 207.543 242.916 207.543 243.974C207.543 245.032 207.122 246.045 206.374 246.792C205.627 247.542 204.611 247.961 203.553 247.961Z" stroke="#006B99" stroke-width="1.54342" stroke-linecap="round" stroke-linejoin="round"/>
<path d="M371.746 247.961H225.574C224.516 247.959 223.501 247.538 222.753 246.79C222.004 246.041 221.582 245.028 221.582 243.968C221.586 242.913 222.008 241.901 222.757 241.154C223.504 240.408 224.518 239.987 225.574 239.985H371.746C372.804 239.985 373.818 240.406 374.565 241.154C375.315 241.901 375.734 242.916 375.734 243.974C375.734 245.032 375.315 246.045 374.565 246.792C373.818 247.542 372.804 247.961 371.746 247.961Z" stroke="#006B99" stroke-width="1.54342" stroke-linecap="round" stroke-linejoin="round"/>
<path d="M273.312 265.01H173.645C172.587 265.008 171.572 264.588 170.824 263.839C170.076 263.092 169.655 262.076 169.654 261.019C169.656 259.961 170.078 258.949 170.826 258.202C171.574 257.455 172.588 257.035 173.645 257.035H273.312C274.352 257.062 275.341 257.493 276.068 258.237C276.796 258.982 277.202 259.982 277.202 261.022C277.202 262.063 276.796 263.063 276.068 263.806C275.341 264.552 274.352 264.983 273.312 265.01Z" stroke="#006B99" stroke-width="1.54342" stroke-linecap="round" stroke-linejoin="round"/>
<path d="M371.744 265.01H295.331C294.273 265.008 293.259 264.588 292.51 263.839C291.76 263.092 291.339 262.076 291.339 261.019C291.341 259.961 291.764 258.949 292.512 258.202C293.261 257.457 294.275 257.037 295.331 257.035H371.744C372.785 257.062 373.776 257.493 374.502 258.237C375.228 258.982 375.637 259.982 375.637 261.022C375.637 262.063 375.228 263.063 374.502 263.806C373.776 264.552 372.785 264.983 371.744 265.01Z" stroke="#006B99" stroke-width="1.54342" stroke-linecap="round" stroke-linejoin="round"/>
<path d="M153.377 261.019C153.376 261.605 153.202 262.178 152.875 262.664C152.549 263.151 152.086 263.53 151.544 263.755C151.002 263.979 150.406 264.036 149.831 263.921C149.256 263.806 148.728 263.525 148.314 263.109C147.899 262.695 147.617 262.166 147.503 261.592C147.389 261.017 147.447 260.421 147.672 259.881C147.896 259.338 148.276 258.875 148.763 258.549C149.25 258.223 149.823 258.049 150.409 258.049C150.799 258.049 151.186 258.125 151.546 258.273C151.907 258.422 152.234 258.641 152.51 258.917C152.786 259.193 153.004 259.522 153.153 259.882C153.302 260.243 153.378 260.63 153.377 261.019Z" stroke="#006B99" stroke-width="1.54342" stroke-linecap="round" stroke-linejoin="round"/>
<path d="M327.569 282.056H173.645C172.587 282.056 171.572 281.635 170.824 280.887C170.076 280.138 169.655 279.125 169.654 278.067C169.658 277.009 170.079 275.998 170.827 275.251C171.575 274.505 172.588 274.084 173.645 274.084H327.569C328.61 274.109 329.6 274.54 330.327 275.285C331.053 276.03 331.461 277.029 331.461 278.069C331.461 279.111 331.053 280.11 330.327 280.855C329.6 281.6 328.61 282.031 327.569 282.056Z" stroke="#006B99" stroke-width="1.54342" stroke-linecap="round" stroke-linejoin="round"/>
<path d="M371.746 282.056H349.586C348.528 282.056 347.512 281.635 346.765 280.887C346.018 280.138 345.596 279.125 345.596 278.065C345.598 277.01 346.02 275.998 346.769 275.251C347.516 274.503 348.53 274.084 349.586 274.084H371.746C372.277 274.07 372.808 274.164 373.302 274.358C373.797 274.553 374.249 274.844 374.629 275.216C375.01 275.588 375.313 276.03 375.52 276.521C375.727 277.011 375.832 277.538 375.832 278.069C375.832 278.602 375.727 279.129 375.52 279.619C375.313 280.108 375.01 280.552 374.629 280.924C374.249 281.296 373.797 281.587 373.302 281.78C372.808 281.976 372.277 282.07 371.746 282.056Z" stroke="#006B99" stroke-width="1.54342" stroke-linecap="round" stroke-linejoin="round"/>
<path d="M153.377 278.059C153.377 278.646 153.203 279.219 152.876 279.705C152.55 280.192 152.087 280.573 151.545 280.797C151.004 281.022 150.408 281.079 149.832 280.964C149.258 280.851 148.729 280.567 148.315 280.154C147.9 279.74 147.618 279.211 147.503 278.636C147.389 278.061 147.447 277.465 147.671 276.923C147.896 276.381 148.275 275.919 148.763 275.592C149.25 275.266 149.823 275.092 150.409 275.092C150.799 275.092 151.185 275.168 151.546 275.316C151.906 275.465 152.234 275.684 152.509 275.96C152.785 276.235 153.004 276.563 153.153 276.923C153.301 277.283 153.378 277.669 153.377 278.059Z" stroke="#006B99" stroke-width="1.54342" stroke-linecap="round" stroke-linejoin="round"/>
<path d="M226.806 299.107H173.645C172.587 299.105 171.572 298.683 170.824 297.936C170.076 297.187 169.655 296.171 169.654 295.114C169.658 294.058 170.079 293.044 170.827 292.299C171.575 291.552 172.588 291.132 173.645 291.13H226.806C227.864 291.13 228.88 291.552 229.627 292.299C230.375 293.046 230.794 294.062 230.794 295.119C230.794 296.175 230.375 297.191 229.627 297.938C228.88 298.685 227.864 299.107 226.806 299.107Z" stroke="#006B99" stroke-width="1.54342" stroke-linecap="round" stroke-linejoin="round"/>
<path d="M371.746 299.107H248.827C247.769 299.105 246.753 298.683 246.004 297.936C245.257 297.187 244.835 296.171 244.833 295.114C244.839 294.058 245.261 293.044 246.01 292.299C246.757 291.552 247.771 291.132 248.827 291.13H371.746C372.804 291.13 373.818 291.552 374.565 292.299C375.315 293.046 375.734 294.062 375.734 295.119C375.734 296.175 375.315 297.191 374.565 297.938C373.818 298.685 372.804 299.107 371.746 299.107Z" stroke="#006B99" stroke-width="1.54342" stroke-linecap="round" stroke-linejoin="round"/>
<path d="M153.377 295.114C153.377 295.7 153.203 296.273 152.876 296.76C152.55 297.248 152.087 297.628 151.545 297.852C151.004 298.076 150.408 298.133 149.832 298.02C149.258 297.905 148.729 297.622 148.315 297.208C147.9 296.794 147.618 296.265 147.503 295.691C147.389 295.116 147.447 294.52 147.671 293.978C147.896 293.435 148.275 292.974 148.763 292.648C149.25 292.32 149.823 292.148 150.409 292.146C150.799 292.146 151.185 292.223 151.545 292.372C151.906 292.522 152.233 292.74 152.509 293.016C152.784 293.29 153.003 293.617 153.152 293.978C153.301 294.338 153.377 294.725 153.377 295.114Z" stroke="#006B99" stroke-width="1.54342" stroke-linecap="round" stroke-linejoin="round"/>
<path d="M97.1442 211.747C97.0507 211.747 96.9596 211.747 96.8663 211.747C96.7728 211.747 96.6722 211.747 96.5789 211.747C93.7011 211.599 90.9947 210.335 89.0367 208.221C87.0788 206.108 86.0243 203.313 86.098 200.433C86.1718 197.553 87.368 194.815 89.4315 192.805C91.495 190.794 94.2628 189.669 97.1442 189.669" stroke="#006B99" stroke-width="2.31632" stroke-linecap="round" stroke-linejoin="round"/>
<path d="M81.4571 211.731H97.1448C97.0513 211.731 96.9602 211.731 96.8669 211.731C93.9698 211.816 91.222 213.036 89.2158 215.127C87.2097 217.219 86.1059 220.014 86.1423 222.911C86.1788 225.808 87.3525 228.577 89.4107 230.617C91.4688 232.656 94.2465 233.808 97.1448 233.819" stroke="#006B99" stroke-width="2.31632" stroke-linecap="round" stroke-linejoin="round"/>
<path d="M116.978 211.747C117.072 211.747 117.173 211.747 117.266 211.747C117.359 211.747 117.453 211.747 117.544 211.747C120.422 211.599 123.128 210.335 125.086 208.221C127.044 206.108 128.098 203.313 128.025 200.433C127.951 197.553 126.755 194.815 124.691 192.805C122.627 190.794 119.86 189.669 116.978 189.669" stroke="#006B99" stroke-width="2.31632" stroke-linecap="round" stroke-linejoin="round"/>
<path d="M132.666 211.731H116.978C117.072 211.731 117.173 211.731 117.266 211.731C120.164 211.816 122.912 213.036 124.918 215.129C126.924 217.221 128.027 220.018 127.989 222.917C127.952 225.814 126.776 228.583 124.716 230.621C122.656 232.66 119.877 233.81 116.978 233.819" stroke="#006B99" stroke-width="2.31632" stroke-linecap="round" stroke-linejoin="round"/>
<path d="M422.543 162.345L443.601 150.195L422.543 138.035" stroke="#006B99" stroke-width="2.31632" stroke-linecap="round" stroke-linejoin="round"/>
<path d="M400.926 138.035L379.868 150.195L400.926 162.345" stroke="#006B99" stroke-width="2.31632" stroke-linecap="round" stroke-linejoin="round"/>
<path d="M417.731 132.541L405.142 167.669" stroke="#006B99" stroke-width="1.54342" stroke-linecap="round" stroke-linejoin="round"/>
<path d="M399.089 333.25L402.5 322.896L410.592 298.331L418.691 322.896L422.102 333.25" stroke="#006B99" stroke-width="2.31632" stroke-linecap="round" stroke-linejoin="round"/>
<path d="M402.5 322.896H418.691" stroke="#006B99" stroke-width="2.31632" stroke-linecap="round" stroke-linejoin="round"/>
<path d="M439.625 327.222C437.402 331.987 433.238 334.754 430.34 333.405C427.441 332.056 426.9 327.09 429.123 322.317C431.346 317.543 435.501 314.783 438.408 316.132C439.301 316.68 440.02 317.474 440.478 318.416C440.936 319.359 441.116 320.413 440.997 321.455C440.961 323.453 440.493 325.421 439.625 327.222Z" stroke="#006B99" stroke-width="1.54342" stroke-linecap="round" stroke-linejoin="round"/>
<path d="M440.991 321.384C440.991 321.409 440.991 321.432 440.991 321.455C441.417 325.647 438.853 336.691 445.543 332.196" stroke="#006B99" stroke-width="1.54342" stroke-linecap="round" stroke-linejoin="round"/>
</svg>
