<svg width="34" height="32" viewBox="0 0 34 32" fill="none" xmlns="http://www.w3.org/2000/svg">
<path fill-rule="evenodd" clip-rule="evenodd" d="M14.8801 4.16786C14.6128 4.26968 14.4792 4.41512 14.5089 4.57511C14.5534 4.82238 9.10413 12.0367 7.70843 16.4147C7.27782 17.782 7.9757 17.9711 11.1532 17.3747C13.0835 17.0111 13.0092 16.6329 11.7322 20.1528C10.782 22.7418 10.0841 24.909 9.75752 26.2326C9.31206 27.978 10.2475 28.8943 12.5638 26.5235C13.5586 25.5053 15.8155 23.2218 21.1013 17.3165C25.5855 12.3131 25.5706 12.444 22.0367 12.3131L19.8541 12.2258C20.8787 11.164 24.7093 7.12051 25.8824 6.17505C27.0553 5.21509 27.4266 4.82239 25.8527 4.60421C24.0264 4.3424 17.8496 4.24059 16.0382 4.08059C15.6224 4.03696 15.1028 4.08059 14.8801 4.16786ZM23.6849 5.6369L22.9127 6.26232C21.027 7.77499 17.3002 12.124 17.3002 12.793C17.3002 13.5203 18.5475 13.4475 21.7695 13.4475C17.0181 18.8437 13.3061 23.0473 13.217 23.0473C13.1873 23.0473 13.5289 22.0873 13.9892 20.8946C15.7115 16.3711 15.8006 15.5275 14.5831 15.6729C12.4747 15.9202 10.4108 16.1966 10.1287 16.2838C9.87631 16.3565 10.0396 15.9639 10.9898 14.2185C12.6826 11.0477 13.3655 10.1313 16.3352 5.28782C21.9922 5.53508 21.9328 5.53509 23.6849 5.6369Z" fill="#006B99"/>
</svg>
