<svg width="23" height="22" viewBox="0 0 23 22" fill="none" xmlns="http://www.w3.org/2000/svg">
<path fill-rule="evenodd" clip-rule="evenodd" d="M7.81044 1.97028C6.01828 3.45898 5.60247 3.65563 3.839 3.83821C1.54509 4.07693 1.58809 4.0629 1.67409 4.5123C1.7601 4.98986 1.88922 6.80158 1.93222 7.27908C0.21175 9.20321 0.168713 9.1189 0.326415 10.2004C0.383766 10.6358 0.269083 14.6806 0.555825 18.4304C0.627513 19.3715 0.942895 19.8068 1.83184 20.2562C3.55225 21.0989 4.97164 20.6074 3.60962 19.6383C2.39098 18.7675 2.27629 18.3883 2.14728 14.9334C2.10422 13.8098 2.00385 12.2789 1.91785 11.5205C1.57378 8.51503 2.62042 9.76495 2.57736 10.0178C2.49135 10.6919 2.83542 11.2256 4.3552 11.9981C5.27277 12.4615 8.69927 14.6103 10.0613 15.0598C12.0829 15.748 12.9144 14.512 17.6743 11.3239C18.5489 10.7481 19.1224 10.2284 19.4521 9.72283C20.2837 8.47285 20.3698 14.807 19.5526 17.5035C19.0077 19.3012 18.85 19.3574 13.617 19.4838C8.25488 19.6102 5.70284 19.9473 5.83185 20.3265C6.14729 21.2534 18.0328 21.4641 19.9109 20.5933C20.7425 20.2001 21.6457 18.2057 21.8178 17.2367C22.0759 15.8041 22.0902 13.5991 21.8608 10.6638C21.7031 8.55716 21.488 8.09368 20.298 7.05438C19.8823 6.68923 19.8536 6.00106 20.2263 4.62465C20.3697 4.09101 20.5561 3.23428 19.2514 3.23428C17.9468 3.23428 15.8535 3.31853 15.4951 3.31853C14.9789 3.00958 12.8428 1.81575 12.47 1.4506C12.1403 1.1978 10.133 0.0461596 7.81044 1.97028ZM12.47 2.75678C12.9575 3.06573 13.3588 3.33261 13.3588 3.37473C13.3588 3.40283 12.1259 3.43088 10.6205 3.43088C7.69569 3.43088 7.63837 3.40283 8.65633 2.78482C10.1187 1.87195 11.0506 1.87195 12.47 2.75678ZM18.5919 8.71163C18.4772 9.27344 17.8607 9.52624 17.445 9.20321C17.1438 8.97851 16.8571 8.92231 15.6959 8.92231C15.3374 8.92231 9.1724 8.89421 6.33367 9.09086C3.839 9.25936 5.1724 10.2284 6.49142 10.397C7.59537 10.5374 16.4844 10.2004 16.3123 10.4672C16.2263 10.6077 13.4162 12.6301 11.5667 14.1047C11.1796 13.9081 3.96807 10.3127 3.69563 10.3127C3.45193 10.3127 3.27987 4.86343 3.29424 4.84941C3.33724 4.7932 11.6671 4.5685 18.5059 4.5685C18.7353 6.64711 18.8643 7.36338 18.5919 8.71163ZM11.5954 6.5909C10.6922 7.47573 11.6814 7.81278 14.9933 7.75664C17.9611 7.70043 18.1905 7.64429 17.617 6.99823C17.1152 6.40833 12.1116 6.07128 11.5954 6.5909Z" fill="#006B99"/>
</svg>
