<svg width="34" height="32" viewBox="0 0 34 32" fill="none" xmlns="http://www.w3.org/2000/svg">
<path d="M29.1052 16.5536C28.0555 10.213 23.5548 5.55493 19.5472 6.66104C18.7043 6.8947 18.0364 7.43998 15.3487 10.1663C13.9492 11.584 13.5198 11.9267 13.2812 11.8488C10.6731 10.8518 9.03499 12.0981 9.05085 15.0893C9.05085 16.6783 9.13043 17.0989 9.65524 18.7036C9.79838 19.1242 7.98532 20.7755 5.71114 23.1279C3.88224 24.7637 5.80654 25.2623 8.55788 24.3899C13.2971 22.8943 12.5655 22.9566 14.2036 23.8602C16.8913 25.3402 20.3901 25.8854 21.9804 25.0754C22.2985 24.9195 22.4735 24.5924 22.4416 24.2341C22.4416 24.2185 22.2985 22.6918 22.2985 22.7074C24.4773 21.8505 27.1014 20.9781 28.3419 20.1056C29.5823 19.2177 29.4073 18.3608 29.1052 16.5536ZM8.54202 22.941C8.36704 22.941 10.4504 20.6976 10.5935 20.5419C10.6253 20.7288 11.0707 21.4299 11.7068 21.8505C11.7227 21.9284 8.8283 22.941 8.54202 22.941ZM24.6522 19.5292C23.7616 19.7318 20.9626 20.8223 19.9766 21.3675C19.261 21.757 19.2291 21.8038 19.3246 22.3023C19.6744 24.2029 19.7698 24.0939 18.0841 23.6732C14.2672 22.7074 9.84607 15.3696 11.5955 12.8926C12.0884 12.1916 12.7723 13.0795 12.82 14.4973C12.8677 15.9928 14.2195 18.4543 15.1737 19.0619C15.7303 19.4202 16.0166 18.984 15.8734 18.7036C14.0287 15.3697 14.3308 14.4817 14.4581 13.9832C14.4581 13.9832 18.5135 9.96379 18.8475 9.60545C20.072 8.32801 21.1534 8.26569 22.3462 9.38738C24.5409 11.4749 26.2267 14.7932 26.6561 17.8311C26.7515 18.6413 26.0835 19.2177 24.6522 19.5292Z" fill="#006B99"/>
<path d="M24.7636 17.1614C22.9348 18.1117 19.2928 11.5062 20.9786 10.3066C21.742 9.76136 20.5651 9.09145 19.9289 9.79255C18.8634 10.9765 19.8972 17.4574 24.2865 18.2052C25.0817 18.3454 25.7338 18.2052 25.7974 17.6755C25.861 17.2237 25.2567 16.8965 24.7636 17.1614Z" fill="#006B99"/>
</svg>
