<svg width="34" height="32" viewBox="0 0 34 32" fill="none" xmlns="http://www.w3.org/2000/svg">
<path d="M19.6126 15.1445C19.965 15.1445 20.2046 14.9788 20.4442 14.5369C21.3041 12.9629 22.0088 12.8524 22.3894 14.2056C22.77 15.5311 24.2078 15.6692 24.2078 14.3851C24.2078 12.9629 21.9242 11.8029 20.2891 12.3829C19.0769 12.8247 18.5131 15.1445 19.6126 15.1445Z" fill="#006B99"/>
<path d="M12.0572 15.5724C12.0572 14.3436 12.917 13.8464 13.3258 14.8268C13.791 15.9176 14.6085 16.2352 14.9186 15.4343C15.4965 13.9707 12.3955 12.5347 11 13.6117C10.4503 14.0398 9.95696 15.2963 10.1543 15.7934C10.3939 16.4147 12.0572 16.2076 12.0572 15.5724Z" fill="#006B99"/>
<path d="M13.0298 22.5041C16.8075 24.1473 20.6414 23.6502 23.1645 21.1923C25.8145 18.6103 24.7997 15.9177 21.3744 16.4286C21.0502 16.4701 20.0917 16.8152 19.2601 17.1881C17.5686 17.9337 16.5256 17.9889 14.1857 17.4366C10.3376 16.5528 9.35084 20.9162 13.0298 22.5041ZM22.784 17.4918C23.4324 18.2927 23.1364 19.6596 22.1356 20.5848C21.4731 21.1923 21.5436 21.2475 21.0925 19.7287C20.8952 19.0521 20.6697 18.3617 20.5851 18.1822C20.3314 17.5471 22.3329 16.9257 22.784 17.4918ZM18.5553 18.4446C19.3869 18.2237 19.387 18.2098 19.7675 19.991C20.1904 21.9518 20.1904 21.9794 19.4715 22.228C18.076 22.7112 18.2311 22.6836 17.8928 18.6103L18.5553 18.4446ZM15.1865 18.5964H16.751C16.751 21.4823 16.7934 21.4409 17.0048 22.4903L16.2436 22.3522C15.0737 22.1451 15.1865 22.0623 15.1865 18.5964ZM13.5795 18.1408C14.0729 18.2651 14.2843 21.6756 13.8051 21.6756C13.354 21.6756 12.3109 20.4191 12.17 19.6873C11.9445 18.486 12.5083 17.8646 13.5795 18.1408Z" fill="#006B99"/>
<path d="M22.2062 7.28761C19.9932 6.19681 19.9368 6.61107 22.023 8.59937C28.5492 14.7992 26.7872 24.1333 18.9642 24.8927C12.889 25.4865 8.56161 21.8136 8.6744 16.2904C8.75898 11.8995 11.7049 7.30145 16.5538 6.74913C17.5264 6.63864 17.5546 6.61107 17.1177 6.3763C16.4411 6.00347 14.4677 6.07254 13.2696 6.48679C11.705 7.03911 10.1122 8.17133 8.87171 9.63501C5.75661 13.2803 6.09493 19.0105 8.54754 22.4073C11.6063 26.6463 21.8538 27.3782 25.4481 23.6086C29.9588 18.8863 28.2391 10.2701 22.2062 7.28761Z" fill="#006B99"/>
</svg>
